<?xml version="1.0" encoding="utf-8"?>
<!-- Generator: Adobe Illustrator 22.0.1, SVG Export Plug-In . SVG Version: 6.00 Build 0)  -->
<svg version="1.1" id="Layer_1" xmlns="http://www.w3.org/2000/svg" xmlns:xlink="http://www.w3.org/1999/xlink" x="0px" y="0px"
	 viewBox="0 0 512 512" style="enable-background:new 0 0 512 512;" xml:space="preserve">
<style type="text/css">
	.st0{fill:none;stroke:#FFFFFF;stroke-width:24;stroke-linecap:square;stroke-miterlimit:10;}
</style>
<path class="st0" d="M425.7,84.3c73.9,73.9,89.5,184,46.9,273.2l-62-62c14.3-53.4,0.4-112.7-41.4-154.6
	C322.7,94.5,254.9,82.5,197.5,105l103.7,103.7l-90.5,90.5L107,195.5c-22.5,57.4-10.6,125.2,35.8,171.6
	c41.9,41.9,101.2,55.7,154.6,41.4l62,62c-89.2,42.6-199.3,27-273.2-46.9C8.2,345.6-4.8,227.2,47.1,135.7
	c10.4-18.4,23.5-35.7,39.2-51.4s33-28.7,51.4-39.2C229.2-6.8,347.7,6.2,425.7,84.3z"/>
</svg>
